<?xml version="1.0" encoding="utf-8"?>
<!-- Generator: Adobe Illustrator 18.0.0, SVG Export Plug-In . SVG Version: 6.00 Build 0)  -->
<!DOCTYPE svg PUBLIC "-//W3C//DTD SVG 1.1//EN" "http://www.w3.org/Graphics/SVG/1.1/DTD/svg11.dtd">
<svg version="1.1" id="Layer_1" xmlns="http://www.w3.org/2000/svg" xmlns:xlink="http://www.w3.org/1999/xlink" x="0px" y="0px"
	 viewBox="0 0 612 792" enable-background="new 0 0 612 792" xml:space="preserve">
<path fill-rule="evenodd" clip-rule="evenodd" d="M297.1,424.7l-4.2-4.2l48-48l4.2,4.2L297.1,424.7z M291.1,418.7l-4.2-4.2l48-48
	l4.2,4.2L291.1,418.7z M333.1,364.7l-48,48l-4.2-4.2l48-48L333.1,364.7z M274.8,402.5l9-9l4.2,4.2l-9,9L274.8,402.5z M282.1,391.7
	l-9,9l-4.2-4.2l9-9L282.1,391.7z M271.8,381.4l4.2,4.2l-9,9l-4.2-4.2L271.8,381.4z M298.8,426.4l48-48l4.1,4.1l-48,48L298.8,426.4z"
	/>
</svg>
